<svg xmlns="http://www.w3.org/2000/svg" xmlns:xlink="http://www.w3.org/1999/xlink" width="1080" zoomAndPan="magnify" viewBox="0 0 810 809.999993" height="1080" preserveAspectRatio="xMidYMid meet" version="1.0"><defs><clipPath id="id1"><path d="M 157 620 L 590 620 L 590 707.25 L 157 707.25 Z M 157 620 " clip-rule="nonzero"/></clipPath></defs><rect x="-81" width="972" fill="rgb(100%, 100%, 100%)" y="-80.999999" height="971.999992" fill-opacity="1"/><rect x="-81" width="972" fill="rgb(100%, 100%, 100%)" y="-80.999999" height="971.999992" fill-opacity="1"/><g clip-path="url(#id1)"><path fill="rgb(98.81897%, 83.918762%, 65.489197%)" d="M 360.65625 707.25 C 312.332031 707.25 273.183594 704.757812 271.714844 698.09375 C 268.460938 683.390625 346.945312 675.1875 346.945312 675.1875 C 90.320312 665.601562 144.402344 629.4375 222.433594 625.300781 C 232.433594 624.777344 255.464844 624.121094 283.816406 623.464844 C 301.21875 627.632812 314.832031 628.351562 314.832031 628.351562 C 314.832031 628.351562 321.699219 622.378906 348.316406 622.378906 C 354.230469 622.378906 361.117188 622.707031 369.117188 623.398438 C 366.554688 623.332031 363.914062 623.265625 361.226562 623.265625 C 335.425781 623.265625 314.519531 627.730469 314.519531 633.210938 C 314.519531 638.722656 335.425781 643.1875 361.226562 643.1875 C 387.015625 643.1875 407.941406 638.722656 407.941406 633.210938 C 407.941406 630.75 403.703125 628.484375 396.738281 626.746094 C 406.890625 627.859375 416.875 628.351562 426.601562 628.351562 C 453.699219 628.351562 478.4375 624.613281 497.097656 620.640625 C 664.632812 630.09375 553.730469 665.601562 553.730469 665.601562 C 604.1875 671.804688 576.691406 692.910156 526.496094 699.210938 C 491.707031 703.574219 419.40625 707.25 360.65625 707.25 M 493.515625 667.671875 C 486.714844 667.671875 481.195312 668.851562 481.195312 670.296875 C 481.195312 671.738281 486.714844 672.921875 493.515625 672.921875 C 500.316406 672.921875 505.835938 671.738281 505.835938 670.296875 C 505.835938 668.851562 500.316406 667.671875 493.515625 667.671875 M 470.816406 649.421875 C 454.6875 649.421875 441.578125 652.210938 441.578125 655.660156 C 441.578125 659.105469 454.6875 661.894531 470.816406 661.894531 C 486.945312 661.894531 500.019531 659.105469 500.019531 655.660156 C 500.019531 652.210938 486.945312 649.421875 470.816406 649.421875 " fill-opacity="1" fill-rule="nonzero"/></g><path fill="rgb(98.039246%, 73.728943%, 44.709778%)" d="M 493.515625 672.921875 C 486.714844 672.921875 481.195312 671.738281 481.195312 670.296875 C 481.195312 668.851562 486.714844 667.671875 493.515625 667.671875 C 500.316406 667.671875 505.800781 668.851562 505.800781 670.296875 C 505.800781 671.738281 500.316406 672.921875 493.515625 672.921875 " fill-opacity="1" fill-rule="nonzero"/><path fill="rgb(98.039246%, 73.728943%, 44.709778%)" d="M 470.816406 661.894531 C 454.6875 661.894531 441.578125 659.105469 441.578125 655.660156 C 441.578125 652.210938 454.6875 649.421875 470.816406 649.421875 C 486.945312 649.421875 500.019531 652.210938 500.019531 655.660156 C 500.019531 659.105469 486.945312 661.894531 470.816406 661.894531 " fill-opacity="1" fill-rule="nonzero"/><path fill="rgb(98.039246%, 73.728943%, 44.709778%)" d="M 361.226562 643.1875 C 335.425781 643.1875 314.519531 638.722656 314.519531 633.210938 C 314.519531 627.730469 335.425781 623.265625 361.226562 623.265625 C 363.914062 623.265625 366.554688 623.332031 369.117188 623.398438 C 374.925781 623.921875 381.324219 624.679688 388.355469 625.695312 C 391.160156 626.089844 393.945312 626.449219 396.738281 626.746094 C 403.703125 628.484375 407.941406 630.75 407.941406 633.210938 C 407.941406 638.722656 387.015625 643.1875 361.226562 643.1875 " fill-opacity="1" fill-rule="nonzero"/><path fill="rgb(47.839355%, 81.568909%, 88.62915%)" d="M 314.832031 628.351562 C 314.832031 628.351562 203.96875 622.414062 210.523438 547.652344 C 217.078125 472.859375 184.300781 439.90625 175.558594 427.46875 C 166.820312 415.03125 161.359375 370.8125 210.523438 344.070312 C 259.691406 317.328125 199.050781 255.652344 195.226562 224 C 191.40625 192.34375 209.976562 166.148438 249.855469 157.960938 C 289.738281 149.773438 305.363281 132.308594 313.648438 123.578125 C 321.9375 114.839844 381.1875 81.007812 414.9375 147.589844 C 448.707031 214.175781 481.328125 209.808594 502.121094 210.355469 C 522.882812 210.902344 547.785156 232.199219 531.195312 298.238281 C 514.636719 364.277344 554.683594 359.539062 566.046875 357.941406 C 594.464844 353.945312 645.316406 415.0625 558.460938 454.742188 C 558.460938 454.742188 493.449219 491.234375 563.617188 523.859375 C 621.894531 550.933594 544.269531 607.347656 525.148438 613.324219 C 506.03125 619.328125 448.742188 634.425781 388.355469 625.695312 C 327.976562 616.964844 314.832031 628.351562 314.832031 628.351562 " fill-opacity="1" fill-rule="nonzero"/><path fill="rgb(73.728943%, 90.19928%, 89.408875%)" d="M 210.589844 344.035156 C 210.59375 344.035156 210.597656 344.03125 210.601562 344.03125 C 210.597656 344.03125 210.59375 344.035156 210.589844 344.035156 M 210.660156 343.996094 C 210.664062 343.996094 210.667969 343.992188 210.675781 343.988281 C 210.667969 343.992188 210.664062 343.996094 210.660156 343.996094 M 210.730469 343.957031 C 210.738281 343.953125 210.746094 343.949219 210.75 343.949219 C 210.746094 343.949219 210.738281 343.953125 210.730469 343.957031 M 210.800781 343.917969 C 210.808594 343.914062 210.816406 343.914062 210.824219 343.90625 C 210.816406 343.910156 210.804688 343.914062 210.800781 343.917969 M 210.871094 343.882812 C 210.875 343.875 210.882812 343.871094 210.890625 343.871094 C 210.882812 343.871094 210.875 343.878906 210.871094 343.882812 M 210.941406 343.839844 C 210.953125 343.835938 210.957031 343.832031 210.964844 343.832031 C 210.957031 343.832031 210.949219 343.835938 210.941406 343.839844 M 211.015625 343.800781 C 211.023438 343.796875 211.035156 343.789062 211.039062 343.789062 C 211.03125 343.789062 211.023438 343.792969 211.015625 343.800781 M 211.078125 343.765625 C 211.089844 343.757812 211.101562 343.75 211.113281 343.746094 C 211.101562 343.75 211.089844 343.757812 211.078125 343.765625 M 211.148438 343.726562 C 211.160156 343.722656 211.164062 343.71875 211.175781 343.710938 C 211.164062 343.71875 211.160156 343.722656 211.148438 343.726562 M 211.222656 343.6875 C 211.230469 343.679688 211.242188 343.675781 211.25 343.667969 C 211.242188 343.671875 211.230469 343.679688 211.222656 343.6875 M 211.296875 343.644531 C 211.304688 343.636719 211.316406 343.632812 211.328125 343.625 C 211.316406 343.632812 211.304688 343.640625 211.296875 343.644531 M 211.355469 343.609375 C 211.367188 343.601562 211.386719 343.59375 211.402344 343.585938 C 211.382812 343.59375 211.371094 343.601562 211.355469 343.609375 M 211.425781 343.570312 C 211.445312 343.5625 211.457031 343.550781 211.472656 343.542969 L 211.425781 343.570312 M 211.5 343.527344 C 211.535156 343.503906 211.574219 343.484375 211.613281 343.460938 C 211.574219 343.484375 211.535156 343.503906 211.5 343.527344 M 211.617188 343.460938 C 211.640625 343.445312 211.664062 343.433594 211.691406 343.417969 C 211.664062 343.433594 211.640625 343.445312 211.617188 343.460938 M 211.695312 343.417969 C 238.304688 328.089844 230.734375 301.925781 218.464844 276.40625 L 218.472656 276.40625 C 230.742188 301.925781 238.304688 328.089844 211.695312 343.417969 " fill-opacity="1" fill-rule="nonzero"/><path fill="rgb(35.688782%, 76.858521%, 81.568909%)" d="M 314.832031 628.351562 C 314.832031 628.351562 210.265625 622.742188 210.246094 553.953125 C 210.246094 551.886719 210.335938 549.816406 210.523438 547.652344 C 211.113281 540.925781 211.386719 534.558594 211.386719 528.484375 C 211.382812 467.113281 183.515625 438.792969 175.558594 427.46875 C 172.472656 423.070312 169.789062 414.703125 169.789062 404.527344 C 169.785156 385.949219 178.738281 361.359375 210.523438 344.070312 C 210.546875 344.058594 210.566406 344.046875 210.589844 344.035156 C 210.59375 344.035156 210.597656 344.03125 210.601562 344.03125 C 210.617188 344.019531 210.640625 344.007812 210.660156 343.996094 C 210.664062 343.996094 210.667969 343.992188 210.675781 343.988281 C 210.695312 343.976562 210.714844 343.96875 210.730469 343.957031 C 210.738281 343.953125 210.746094 343.949219 210.75 343.949219 C 210.769531 343.9375 210.78125 343.929688 210.800781 343.917969 C 210.804688 343.914062 210.816406 343.910156 210.824219 343.90625 C 210.839844 343.898438 210.851562 343.890625 210.871094 343.882812 C 210.875 343.878906 210.882812 343.871094 210.890625 343.871094 C 210.90625 343.859375 210.925781 343.851562 210.941406 343.839844 C 210.949219 343.835938 210.957031 343.832031 210.964844 343.832031 C 210.980469 343.820312 210.996094 343.808594 211.015625 343.800781 C 211.023438 343.792969 211.03125 343.789062 211.039062 343.789062 C 211.054688 343.78125 211.066406 343.769531 211.078125 343.765625 C 211.089844 343.757812 211.101562 343.75 211.113281 343.746094 C 211.125 343.738281 211.140625 343.730469 211.148438 343.726562 C 211.160156 343.722656 211.164062 343.71875 211.175781 343.710938 C 211.1875 343.703125 211.207031 343.691406 211.222656 343.6875 C 211.230469 343.679688 211.242188 343.671875 211.25 343.667969 C 211.265625 343.660156 211.28125 343.652344 211.296875 343.644531 C 211.304688 343.640625 211.316406 343.632812 211.328125 343.625 C 211.335938 343.621094 211.347656 343.617188 211.355469 343.609375 C 211.371094 343.601562 211.382812 343.59375 211.402344 343.582031 C 211.410156 343.582031 211.417969 343.574219 211.425781 343.570312 L 211.472656 343.542969 C 211.480469 343.539062 211.492188 343.53125 211.5 343.527344 C 211.535156 343.503906 211.574219 343.484375 211.613281 343.460938 L 211.617188 343.460938 C 211.640625 343.445312 211.664062 343.433594 211.691406 343.417969 L 211.695312 343.417969 C 238.304688 328.089844 230.742188 301.925781 218.472656 276.40625 C 222.394531 276.671875 226.316406 276.953125 230.234375 277.238281 C 253.992188 278.96875 277.898438 280.730469 301.167969 286.121094 C 324.789062 291.59375 346.664062 300.242188 366.121094 314.914062 C 385.074219 329.207031 404.621094 344.789062 421.046875 361.976562 C 437.277344 378.996094 452.15625 396.816406 470.75 411.421875 C 486.453125 423.761719 502.976562 435.015625 521.898438 441.8125 C 535.664062 446.765625 550.640625 449.851562 565.523438 451.296875 C 563.257812 452.445312 560.925781 453.59375 558.460938 454.742188 C 558.460938 454.742188 531.03125 470.132812 531.03125 489.859375 C 531.03125 500.492188 539.011719 512.40625 563.617188 523.859375 C 579.023438 531.011719 584.9375 540.203125 584.9375 550.015625 C 584.9375 577.222656 539.210938 608.925781 525.148438 613.324219 C 510.136719 618.046875 471.636719 628.351562 426.601562 628.351562 C 416.875 628.351562 406.890625 627.859375 396.738281 626.746094 C 393.945312 626.449219 391.160156 626.089844 388.355469 625.695312 C 381.324219 624.679688 374.925781 623.921875 369.117188 623.398438 C 361.117188 622.675781 354.230469 622.378906 348.316406 622.378906 C 321.699219 622.378906 314.832031 628.351562 314.832031 628.351562 " fill-opacity="1" fill-rule="nonzero"/><path fill="rgb(100%, 100%, 100%)" d="M 193.25 223.527344 C 193.25 223.527344 284.984375 187.804688 421.375 254.636719 C 421.375 254.636719 445.160156 268.582031 473.675781 263.917969 C 473.675781 263.917969 502.582031 255.1875 485.5 236.082031 C 468.449219 216.980469 450.023438 240.992188 438 235.535156 C 438 235.535156 448.707031 179.320312 396.378906 161.859375 C 396.378906 161.859375 381.09375 158.582031 368.023438 170.589844 C 368.023438 170.589844 360.882812 181.503906 368.023438 200.058594 C 368.023438 200.058594 312.394531 145.484375 259.375 177.683594 C 259.375 177.683594 244.136719 189.234375 264.265625 203.882812 C 264.265625 203.882812 222.203125 200.609375 193.25 223.527344 " fill-opacity="1" fill-rule="nonzero"/><path fill="rgb(100%, 100%, 100%)" d="M 546.109375 360.667969 C 546.109375 360.667969 511.1875 365.582031 492.203125 345.117188 C 473.246094 324.648438 457.019531 312.082031 441.742188 321.957031 C 426.433594 331.832031 470.78125 372.128906 535.53125 368.855469 C 600.277344 365.582031 559.972656 356.988281 546.109375 360.667969 " fill-opacity="1" fill-rule="nonzero"/><path fill="rgb(45.098877%, 79.998779%, 49.01886%)" d="M 228.574219 677.058594 C 231.082031 676.039062 234.097656 674.792969 237.40625 673.511719 C 238.597656 673.316406 239.792969 673.152344 241.007812 673.054688 C 245.609375 672.757812 248.980469 674.757812 253.28125 675.808594 C 255.082031 676.269531 262.019531 678.238281 262.730469 675.121094 C 262.976562 674.039062 262.296875 673.25 261.347656 672.660156 C 260.96875 672.265625 260.488281 671.9375 259.960938 671.675781 C 258.976562 670.953125 257.675781 670.589844 256.558594 670.261719 C 255.730469 670.035156 254.953125 669.804688 254.195312 669.410156 L 254.117188 669.34375 C 254.042969 669.277344 253.964844 669.246094 253.902344 669.179688 C 253.816406 669.082031 253.558594 668.753906 253.433594 668.457031 C 259.125 667.113281 264.757812 666.457031 269.554688 667.242188 C 282.125 669.277344 293.683594 674.890625 296.140625 672.429688 C 297.757812 670.820312 293.195312 668.128906 289.871094 666.488281 C 289.378906 665.996094 289.113281 665.40625 289.863281 664.78125 C 289.960938 664.71875 290.074219 664.652344 290.179688 664.585938 C 296.984375 663.796875 303.183594 663.667969 308.757812 663.929688 C 308.988281 664.027344 309.230469 664.09375 309.457031 664.226562 C 313.347656 666.292969 316.960938 668.886719 321.207031 670.230469 C 325.242188 671.476562 329.496094 672.296875 333.734375 672.527344 C 336.492188 672.660156 339.761719 672.132812 342.597656 672.757812 C 342.480469 672.921875 342.304688 673.152344 342.074219 673.382812 C 341.800781 673.445312 341.550781 673.609375 341.449219 673.9375 C 341.425781 674.003906 341.386719 674.070312 341.359375 674.136719 C 340.589844 674.957031 339.453125 675.972656 337.875 677.1875 C 337.351562 677.417969 336.808594 677.613281 336.253906 677.777344 C 329.636719 678.171875 323.15625 679.289062 317.875 683.160156 C 312.21875 685.523438 308.242188 690.480469 303.089844 693.5 C 276.214844 701.800781 270.234375 694.648438 283.847656 691.265625 C 298.058594 687.691406 296.417969 681.160156 287.945312 680.863281 C 279.480469 680.601562 275.601562 689.890625 267.191406 690.445312 C 265.136719 690.578125 261.179688 690.085938 256.523438 689.234375 C 258.339844 686.179688 263.929688 681.882812 258.074219 680.40625 C 255.691406 679.8125 252.699219 680.40625 250.570312 681.519531 C 247.257812 683.226562 244.199219 684.933594 240.722656 685.457031 C 230.964844 682.570312 223.558594 679.125 228.574219 677.058594 " fill-opacity="1" fill-rule="nonzero"/><path fill="rgb(67.83905%, 87.449646%, 53.329468%)" d="M 681.089844 645.484375 C 676.621094 643.84375 671.300781 641.90625 665.453125 639.9375 C 663.351562 639.675781 661.25 639.445312 659.144531 639.414062 C 651.097656 639.214844 645.382812 642.925781 637.957031 645.089844 C 634.835938 645.976562 622.910156 649.914062 621.464844 644.597656 C 620.941406 642.695312 622.058594 641.285156 623.667969 640.167969 C 624.324219 639.445312 625.144531 638.855469 626.03125 638.332031 C 627.675781 637.050781 629.941406 636.296875 631.847656 635.671875 C 633.261719 635.210938 634.605469 634.753906 635.886719 633.964844 C 635.953125 633.933594 635.988281 633.898438 636.050781 633.867188 C 636.152344 633.769531 636.28125 633.703125 636.378906 633.570312 C 636.542969 633.40625 636.972656 632.785156 637.167969 632.257812 C 627.148438 630.355469 617.292969 629.601562 608.984375 631.308594 C 587.269531 635.769531 567.527344 646.371094 563.058594 642.269531 C 560.136719 639.578125 567.886719 634.589844 573.570312 631.503906 C 574.390625 630.585938 574.820312 629.503906 573.441406 628.515625 C 573.277344 628.417969 573.078125 628.320312 572.882812 628.1875 C 560.957031 627.304688 550.183594 627.5 540.492188 628.351562 C 540.097656 628.582031 539.667969 628.746094 539.277344 628.945312 C 532.640625 632.816406 526.5625 637.609375 519.269531 640.234375 C 512.304688 642.726562 504.980469 644.46875 497.589844 645.15625 C 492.824219 645.582031 487.078125 644.925781 482.183594 646.207031 C 482.410156 646.46875 482.742188 646.832031 483.136719 647.289062 C 483.628906 647.324219 484.054688 647.617188 484.285156 648.175781 C 484.316406 648.308594 484.382812 648.4375 484.449219 648.535156 C 485.863281 649.851562 487.898438 651.589844 490.722656 653.589844 C 491.644531 653.917969 492.628906 654.214844 493.582031 654.476562 C 505.144531 654.675781 516.511719 656.183594 526.003906 662.550781 C 536.023438 666.226562 543.285156 674.59375 552.480469 679.453125 C 599.882812 691.988281 609.804688 679.125 585.824219 674.167969 C 560.824219 669.015625 563.222656 657.496094 577.941406 656.414062 C 592.691406 655.332031 600.113281 671.183594 614.796875 671.542969 C 618.378906 671.609375 625.246094 670.492188 633.292969 668.65625 C 629.910156 663.503906 619.855469 656.414062 629.941406 653.425781 C 634.046875 652.210938 639.304688 653.035156 643.082031 654.804688 C 648.996094 657.5625 654.449219 660.320312 660.527344 660.941406 C 677.3125 655.230469 689.960938 648.699219 681.089844 645.484375 " fill-opacity="1" fill-rule="nonzero"/><path fill="rgb(45.098877%, 79.998779%, 49.01886%)" d="M 643.214844 363.636719 C 643.214844 363.636719 668.410156 336.089844 673.171875 323.902344 C 677.9375 311.71875 679.90625 296.605469 679.90625 296.605469 C 679.90625 296.605469 658.292969 310.566406 643.214844 363.636719 " fill-opacity="1" fill-rule="nonzero"/><path fill="rgb(67.83905%, 87.449646%, 53.329468%)" d="M 641.078125 367.789062 C 641.078125 367.789062 672.746094 356.195312 681.648438 348.410156 C 690.550781 340.628906 698.433594 329.335938 698.433594 329.335938 C 698.433594 329.335938 675.273438 331.53125 641.078125 367.789062 " fill-opacity="1" fill-rule="nonzero"/><path fill="rgb(67.83905%, 87.449646%, 53.329468%)" d="M 631.289062 387.5625 C 631.289062 387.5625 664.007812 379.390625 673.699219 372.597656 C 683.390625 365.804688 692.421875 355.414062 692.421875 355.414062 C 692.421875 355.414062 669.164062 355.132812 631.289062 387.5625 " fill-opacity="1" fill-rule="nonzero"/><path fill="rgb(67.83905%, 87.449646%, 53.329468%)" d="M 623.734375 405.511719 C 623.734375 405.511719 657.40625 403.609375 668.210938 398.753906 C 678.988281 393.894531 689.828125 385.367188 689.828125 385.367188 C 689.828125 385.367188 667.03125 380.746094 623.734375 405.511719 " fill-opacity="1" fill-rule="nonzero"/><path fill="rgb(67.83905%, 87.449646%, 53.329468%)" d="M 617.65625 433.441406 C 617.65625 433.441406 655.925781 429.042969 668.410156 422.839844 C 680.925781 416.640625 693.703125 406.269531 693.703125 406.269531 C 693.703125 406.269531 668.179688 402.558594 617.65625 433.441406 " fill-opacity="1" fill-rule="nonzero"/><path fill="rgb(67.83905%, 87.449646%, 53.329468%)" d="M 612.53125 463.109375 C 612.53125 463.109375 650.507812 456.710938 662.660156 449.820312 C 674.816406 442.960938 687.003906 431.964844 687.003906 431.964844 C 687.003906 431.964844 661.347656 429.601562 612.53125 463.109375 " fill-opacity="1" fill-rule="nonzero"/><path fill="rgb(67.83905%, 87.449646%, 53.329468%)" d="M 610.230469 483.917969 C 610.230469 483.917969 648.699219 482.636719 661.675781 477.453125 C 674.652344 472.265625 688.21875 462.980469 688.21875 462.980469 C 688.21875 462.980469 663.085938 457.234375 610.230469 483.917969 " fill-opacity="1" fill-rule="nonzero"/><path fill="rgb(67.83905%, 87.449646%, 53.329468%)" d="M 608 508.269531 C 608 508.269531 646.5 507.808594 659.574219 502.886719 C 672.679688 497.996094 686.410156 489.003906 686.410156 489.003906 C 686.410156 489.003906 661.414062 482.703125 608 508.269531 " fill-opacity="1" fill-rule="nonzero"/><path fill="rgb(67.83905%, 87.449646%, 53.329468%)" d="M 605.828125 532.160156 C 605.828125 532.160156 644.332031 531.703125 657.40625 526.8125 C 670.480469 521.890625 684.242188 512.898438 684.242188 512.898438 C 684.242188 512.898438 659.210938 506.628906 605.828125 532.160156 " fill-opacity="1" fill-rule="nonzero"/><path fill="rgb(67.83905%, 87.449646%, 53.329468%)" d="M 598.539062 556.742188 C 598.539062 556.742188 637.039062 556.28125 650.113281 551.394531 C 663.1875 546.46875 676.949219 537.476562 676.949219 537.476562 C 676.949219 537.476562 651.953125 531.175781 598.539062 556.742188 " fill-opacity="1" fill-rule="nonzero"/><path fill="rgb(67.83905%, 87.449646%, 53.329468%)" d="M 589.734375 579.484375 C 589.734375 579.484375 628.234375 578.992188 641.308594 574.105469 C 654.382812 569.214844 668.148438 560.1875 668.148438 560.1875 C 668.148438 560.1875 643.148438 553.921875 589.734375 579.484375 " fill-opacity="1" fill-rule="nonzero"/><path fill="rgb(67.83905%, 87.449646%, 53.329468%)" d="M 575.445312 603.050781 C 575.445312 603.050781 613.945312 602.589844 627.019531 597.667969 C 640.125 592.777344 653.855469 583.785156 653.855469 583.785156 C 653.855469 583.785156 628.859375 577.484375 575.445312 603.050781 " fill-opacity="1" fill-rule="nonzero"/><path fill="rgb(67.83905%, 87.449646%, 53.329468%)" d="M 557.34375 619.722656 C 557.34375 619.722656 588.222656 625.925781 599.195312 624.085938 C 610.199219 622.25 622.15625 617.164062 622.15625 617.164062 C 622.15625 617.164062 602.808594 607.675781 557.34375 619.722656 " fill-opacity="1" fill-rule="nonzero"/><path fill="rgb(45.098877%, 79.998779%, 49.01886%)" d="M 537.371094 589.957031 C 537.371094 589.957031 544.628906 608.332031 548.964844 612.601562 C 553.269531 616.867188 559.28125 619.722656 559.28125 619.722656 C 559.28125 619.722656 557.113281 605.019531 537.371094 589.957031 " fill-opacity="1" fill-rule="nonzero"/><path fill="rgb(45.098877%, 79.998779%, 49.01886%)" d="M 641.40625 367.785156 C 641.40625 367.785156 645.480469 339.929688 643.277344 330.296875 C 641.109375 320.667969 635.921875 310.394531 635.921875 310.394531 C 635.921875 310.394531 628.332031 328.253906 641.40625 367.785156 " fill-opacity="1" fill-rule="nonzero"/><path fill="rgb(45.098877%, 79.998779%, 49.01886%)" d="M 631.191406 388.21875 C 631.191406 388.21875 628.859375 360.164062 624.554688 351.265625 C 620.285156 342.371094 612.925781 333.527344 612.925781 333.527344 C 612.925781 333.527344 609.542969 352.636719 631.191406 388.21875 " fill-opacity="1" fill-rule="nonzero"/><path fill="rgb(45.098877%, 79.998779%, 49.01886%)" d="M 625.375 406.136719 C 625.375 406.136719 615.519531 379.761719 608.984375 372.367188 C 602.414062 364.96875 592.953125 358.453125 592.953125 358.453125 C 592.953125 358.453125 594.890625 377.757812 625.375 406.136719 " fill-opacity="1" fill-rule="nonzero"/><path fill="rgb(45.098877%, 79.998779%, 49.01886%)" d="M 617.65625 433.277344 C 617.65625 433.277344 599.390625 400.820312 589.46875 392.84375 C 579.582031 384.898438 566.148438 379.011719 566.148438 379.011719 C 566.148438 379.011719 572.882812 404.363281 617.65625 433.277344 " fill-opacity="1" fill-rule="nonzero"/><path fill="rgb(45.098877%, 79.998779%, 49.01886%)" d="M 612.53125 462.191406 C 612.53125 462.191406 594.265625 429.734375 584.347656 421.757812 C 574.457031 413.816406 561.023438 407.910156 561.023438 407.910156 C 561.023438 407.910156 567.757812 433.277344 612.53125 462.191406 " fill-opacity="1" fill-rule="nonzero"/><path fill="rgb(45.098877%, 79.998779%, 49.01886%)" d="M 611.511719 483.753906 C 611.511719 483.753906 587.007812 455.691406 575.671875 449.917969 C 564.375 444.140625 550.019531 441.121094 550.019531 441.121094 C 550.019531 441.121094 561.777344 464.554688 611.511719 483.753906 " fill-opacity="1" fill-rule="nonzero"/><path fill="rgb(45.098877%, 79.998779%, 49.01886%)" d="M 608 507.972656 C 608 507.972656 583.523438 479.914062 572.191406 474.136719 C 560.859375 468.363281 546.535156 465.308594 546.535156 465.308594 C 546.535156 465.308594 558.296875 488.773438 608 507.972656 " fill-opacity="1" fill-rule="nonzero"/><path fill="rgb(45.098877%, 79.998779%, 49.01886%)" d="M 606.191406 532.652344 C 606.191406 532.652344 584.640625 505.675781 574.621094 500.164062 C 564.601562 494.648438 551.921875 491.828125 551.921875 491.828125 C 551.921875 491.828125 562.171875 514.4375 606.191406 532.652344 " fill-opacity="1" fill-rule="nonzero"/><path fill="rgb(45.098877%, 79.998779%, 49.01886%)" d="M 599.984375 556.742188 C 599.984375 556.742188 579.515625 529.46875 569.992188 523.921875 C 560.464844 518.410156 548.34375 515.585938 548.34375 515.585938 C 548.34375 515.585938 558 538.496094 599.984375 556.742188 " fill-opacity="1" fill-rule="nonzero"/><path fill="rgb(45.098877%, 79.998779%, 49.01886%)" d="M 590.652344 578.140625 C 590.652344 578.140625 570.285156 551.6875 560.792969 546.304688 C 551.296875 540.925781 539.210938 538.167969 539.210938 538.167969 C 539.210938 538.167969 548.902344 560.386719 590.652344 578.140625 " fill-opacity="1" fill-rule="nonzero"/><path fill="rgb(45.098877%, 79.998779%, 49.01886%)" d="M 578.070312 602.359375 C 578.070312 602.359375 561.976562 577.253906 553.695312 571.378906 C 545.417969 565.472656 534.414062 561.371094 534.414062 561.371094 C 534.414062 561.371094 540.949219 581.324219 578.070312 602.359375 " fill-opacity="1" fill-rule="nonzero"/><path fill="rgb(45.098877%, 79.998779%, 49.01886%)" d="M 646.234375 357.382812 C 646.234375 357.382812 615.390625 396.488281 610.035156 479.980469 C 604.679688 563.503906 580.46875 602.230469 556.226562 619.6875 L 556.226562 622.445312 C 556.226562 622.445312 603.367188 598.292969 610.035156 506.101562 C 616.703125 413.949219 633.6875 380.832031 646.234375 360.136719 L 646.234375 357.382812 " fill-opacity="1" fill-rule="nonzero"/><path fill="rgb(45.098877%, 79.998779%, 49.01886%)" d="M 244.375 573.152344 C 244.375 573.152344 216.34375 452.183594 129.941406 387.5625 L 128.929688 388.285156 C 128.929688 388.285156 208.085938 451.164062 244.375 573.152344 " fill-opacity="1" fill-rule="nonzero"/><path fill="rgb(45.098877%, 79.998779%, 49.01886%)" d="M 203.707031 488.808594 C 203.707031 488.808594 190.152344 463.734375 155.941406 462.355469 C 121.722656 460.945312 116.585938 454.050781 115.734375 451.851562 C 115.734375 451.851562 116.300781 505.347656 203.707031 488.808594 " fill-opacity="1" fill-rule="nonzero"/><path fill="rgb(45.098877%, 79.998779%, 49.01886%)" d="M 175.183594 441.84375 C 175.183594 441.84375 163.777344 424.1875 135.710938 422.808594 C 107.652344 421.429688 103.359375 416.574219 102.632812 415.03125 C 102.632812 415.03125 103.730469 452.347656 175.183594 441.84375 " fill-opacity="1" fill-rule="nonzero"/><path fill="rgb(45.098877%, 79.998779%, 49.01886%)" d="M 202.179688 463.601562 C 202.179688 463.601562 184.089844 441.648438 203.789062 423.332031 C 203.789062 423.332031 212.34375 416.539062 210.609375 411.257812 C 210.609375 411.257812 242.453125 439.316406 202.179688 463.601562 " fill-opacity="1" fill-rule="nonzero"/><path fill="rgb(45.098877%, 79.998779%, 49.01886%)" d="M 166.480469 416.507812 C 166.480469 416.507812 154.503906 401.96875 167.542969 389.859375 C 167.542969 389.859375 173.207031 385.359375 172.058594 381.855469 C 172.058594 381.855469 193.132812 400.425781 166.480469 416.507812 " fill-opacity="1" fill-rule="nonzero"/><path fill="rgb(45.098877%, 79.998779%, 49.01886%)" d="M 229.894531 521.199219 C 229.894531 521.199219 214.394531 488.9375 245.835938 469.707031 C 245.835938 469.707031 259.09375 462.847656 258.710938 455.628906 C 258.710938 455.628906 289.632812 498.851562 229.894531 521.199219 " fill-opacity="1" fill-rule="nonzero"/><path fill="rgb(45.098877%, 79.998779%, 49.01886%)" d="M 230.449219 540.433594 C 230.449219 540.433594 220.640625 506.660156 181.570312 505.972656 C 181.570312 505.972656 165.960938 506.695312 161.257812 500.621094 C 161.257812 500.621094 166.070312 550.671875 230.449219 540.433594 " fill-opacity="1" fill-rule="nonzero"/><path fill="rgb(45.098877%, 79.998779%, 49.01886%)" d="M 148.808594 402.691406 C 148.808594 402.691406 157.898438 379.902344 132.632812 375.488281 C 107.371094 371.070312 109.550781 366.445312 109.042969 364.320312 C 108.527344 362.195312 95.09375 404.59375 146.160156 403.972656 L 148.808594 402.691406 " fill-opacity="1" fill-rule="nonzero"/><path fill="rgb(67.83905%, 87.449646%, 53.329468%)" d="M 293.992188 625.300781 C 293.992188 625.300781 257.761719 565.832031 207.773438 564.191406 C 157.789062 562.550781 183.605469 588.445312 207.773438 594.746094 C 231.949219 601.015625 281.035156 613.453125 293.992188 625.300781 " fill-opacity="1" fill-rule="nonzero"/><path fill="rgb(67.83905%, 87.449646%, 53.329468%)" d="M 246.132812 605.742188 C 246.132812 605.742188 192.457031 599.933594 176.476562 574.597656 C 160.496094 549.261719 153.53125 518.835938 145.339844 513.585938 C 137.144531 508.300781 123.328125 516.210938 123.210938 543.910156 C 123.085938 574.597656 153.53125 617 246.132812 605.742188 " fill-opacity="1" fill-rule="nonzero"/><path fill="rgb(45.098877%, 79.998779%, 49.01886%)" d="M 301.054688 629.796875 C 301.054688 629.796875 274.84375 604.757812 250.417969 618.277344 C 225.992188 631.800781 248.257812 654.050781 266.832031 643.484375 C 285.410156 632.949219 296.566406 630.160156 301.054688 629.796875 " fill-opacity="1" fill-rule="nonzero"/><path fill="rgb(45.098877%, 79.998779%, 49.01886%)" d="M 257.816406 612.601562 C 257.816406 612.601562 218.5 596.550781 186.132812 607.613281 C 153.765625 618.671875 172.203125 627.597656 201.703125 624.777344 C 231.203125 621.953125 253.679688 609.875 257.816406 612.601562 " fill-opacity="1" fill-rule="nonzero"/><path fill="rgb(17.649841%, 50.588989%, 48.239136%)" d="M 643.609375 589.101562 C 627.28125 587.527344 619.199219 598.554688 619.199219 598.554688 C 659.574219 612.109375 663.351562 586.773438 663.351562 586.773438 C 662.824219 587.757812 659.933594 590.675781 643.609375 589.101562 " fill-opacity="1" fill-rule="nonzero"/><path fill="rgb(17.649841%, 50.588989%, 48.239136%)" d="M 655.796875 571.675781 C 642.390625 570.492188 635.820312 578.140625 635.820312 578.140625 C 669.035156 587.789062 671.988281 570.132812 671.988281 570.132812 C 671.53125 570.820312 669.199219 572.855469 655.796875 571.675781 " fill-opacity="1" fill-rule="nonzero"/><path fill="rgb(17.649841%, 50.588989%, 48.239136%)" d="M 621.566406 586.671875 C 621.566406 586.671875 631.585938 577.453125 623.4375 567.472656 C 623.4375 567.472656 619.824219 563.699219 621.007812 561.304688 C 621.007812 561.304688 604.054688 572.527344 621.566406 586.671875 " fill-opacity="1" fill-rule="nonzero"/><path fill="rgb(17.649841%, 50.588989%, 48.239136%)" d="M 641.605469 566.6875 C 641.605469 566.6875 648.238281 560.582031 642.851562 553.953125 C 642.851562 553.953125 640.453125 551.457031 641.210938 549.851562 C 641.210938 549.851562 630.007812 557.300781 641.605469 566.6875 " fill-opacity="1" fill-rule="nonzero"/><path fill="rgb(17.649841%, 50.588989%, 48.239136%)" d="M 600.476562 586.738281 C 600.476562 586.738281 594.628906 582.605469 595.285156 579.222656 C 595.285156 579.222656 577.777344 597.699219 604.648438 612.207031 C 604.648438 612.207031 614.109375 597.898438 600.476562 586.738281 " fill-opacity="1" fill-rule="nonzero"/><path fill="rgb(17.649841%, 50.588989%, 48.239136%)" d="M 628.5625 608.136719 C 610 605.90625 603.136719 621.296875 603.136719 621.296875 C 632.996094 630.355469 638.546875 606.921875 638.546875 606.921875 C 635.921875 609.484375 628.5625 608.136719 628.5625 608.136719 " fill-opacity="1" fill-rule="nonzero"/><path fill="rgb(17.649841%, 50.588989%, 48.239136%)" d="M 672.253906 545.683594 C 671.890625 546.632812 672.613281 548.996094 660.328125 549.425781 C 648.074219 549.851562 650.867188 561.273438 650.867188 561.273438 L 651.097656 561.4375 C 612.5625 588.347656 594.367188 635.902344 594.367188 635.902344 C 612.300781 596.421875 638.546875 572.5625 652.214844 562.09375 C 676.226562 565.570312 672.648438 544.699219 672.253906 545.683594 " fill-opacity="1" fill-rule="nonzero"/><path fill="rgb(22.749329%, 72.549438%, 39.99939%)" d="M 187.714844 608.925781 C 201.972656 604.921875 210.921875 613.421875 210.921875 613.421875 C 177.199219 631.964844 169.765625 610.007812 169.765625 610.007812 C 170.410156 610.796875 173.453125 612.960938 187.714844 608.925781 " fill-opacity="1" fill-rule="nonzero"/><path fill="rgb(22.749329%, 72.549438%, 39.99939%)" d="M 174.074219 595.402344 C 185.800781 592.1875 192.867188 597.929688 192.867188 597.929688 C 164.894531 611.84375 159.417969 596.617188 159.417969 596.617188 C 159.921875 597.175781 162.34375 598.585938 174.074219 595.402344 " fill-opacity="1" fill-rule="nonzero"/><path fill="rgb(22.749329%, 72.549438%, 39.99939%)" d="M 206.902344 603.246094 C 206.902344 603.246094 196.511719 596.652344 202.144531 586.476562 C 202.144531 586.476562 204.746094 582.503906 203.320312 580.570312 C 203.320312 580.570312 220.195312 587.820312 206.902344 603.246094 " fill-opacity="1" fill-rule="nonzero"/><path fill="rgb(22.749329%, 72.549438%, 39.99939%)" d="M 185.878906 588.675781 C 185.878906 588.675781 179 584.308594 182.730469 577.550781 C 182.730469 577.550781 184.453125 574.957031 183.507812 573.675781 C 183.507812 573.675781 194.679688 578.46875 185.878906 588.675781 " fill-opacity="1" fill-rule="nonzero"/><path fill="rgb(22.749329%, 72.549438%, 39.99939%)" d="M 225.679688 599.898438 C 225.679688 599.898438 230.207031 595.273438 229.082031 592.382812 C 229.082031 592.382812 247.617188 606.003906 226.054688 623.199219 C 226.054688 623.199219 215.332031 612.007812 225.679688 599.898438 " fill-opacity="1" fill-rule="nonzero"/><path fill="rgb(22.749329%, 72.549438%, 39.99939%)" d="M 204.121094 623.429688 C 220.289062 618.476562 228.867188 631.042969 228.867188 631.042969 C 203.765625 643.910156 195.050781 623.957031 195.050781 623.957031 C 197.800781 625.828125 204.121094 623.429688 204.121094 623.429688 " fill-opacity="1" fill-rule="nonzero"/><path fill="rgb(22.749329%, 72.549438%, 39.99939%)" d="M 155.230469 574.925781 C 155.726562 575.710938 155.453125 577.910156 166.441406 576.335938 C 177.425781 574.761719 176.75 585.359375 176.75 585.359375 L 176.574219 585.523438 C 215.175781 603.28125 239 642.628906 239 642.628906 C 216.710938 610.402344 189.539062 593.433594 175.695312 586.28125 C 154.914062 593.238281 154.734375 574.105469 155.230469 574.925781 " fill-opacity="1" fill-rule="nonzero"/><path fill="rgb(67.83905%, 87.449646%, 53.329468%)" d="M 272.507812 663.960938 C 272.507812 663.960938 262.589844 653.917969 243.03125 663.503906 C 243.03125 663.503906 260.292969 671.445312 272.507812 663.960938 " fill-opacity="1" fill-rule="nonzero"/><path fill="rgb(45.098877%, 79.998779%, 49.01886%)" d="M 245.066406 650.40625 C 245.066406 650.40625 248.535156 659.726562 223.613281 662.355469 C 223.613281 662.355469 222.355469 650.472656 245.066406 650.40625 " fill-opacity="1" fill-rule="nonzero"/><path fill="rgb(67.83905%, 87.449646%, 53.329468%)" d="M 242.414062 661.402344 C 242.414062 661.402344 245.3125 670.917969 220.273438 672.035156 C 220.273438 672.035156 219.742188 660.054688 242.414062 661.402344 " fill-opacity="1" fill-rule="nonzero"/><path fill="rgb(67.83905%, 87.449646%, 53.329468%)" d="M 218.449219 663.042969 C 218.449219 663.042969 208.523438 653 188.96875 662.582031 C 188.96875 662.582031 206.226562 670.527344 218.449219 663.042969 " fill-opacity="1" fill-rule="nonzero"/><path fill="rgb(45.098877%, 79.998779%, 49.01886%)" d="M 185.9375 648.703125 C 185.9375 648.703125 186.089844 658.613281 210.273438 652.046875 C 210.273438 652.046875 207.128906 640.496094 185.9375 648.703125 " fill-opacity="1" fill-rule="nonzero"/><path fill="rgb(67.83905%, 87.449646%, 53.329468%)" d="M 207.925781 673.28125 C 207.925781 673.28125 208.246094 683.226562 183.777344 677.777344 C 183.777344 677.777344 186.378906 666.09375 207.925781 673.28125 " fill-opacity="1" fill-rule="nonzero"/><path fill="rgb(57.649231%, 81.17981%, 25.489807%)" d="M 693.605469 668.328125 C 693.605469 668.328125 683.683594 658.285156 664.105469 667.867188 C 664.105469 667.867188 681.386719 675.808594 693.605469 668.328125 " fill-opacity="1" fill-rule="nonzero"/><path fill="rgb(23.529053%, 38.42926%, 15.289307%)" d="M 666.144531 654.773438 C 666.144531 654.773438 669.625 664.09375 644.691406 666.71875 C 644.691406 666.71875 643.441406 654.839844 666.144531 654.773438 " fill-opacity="1" fill-rule="nonzero"/><path fill="rgb(57.649231%, 81.17981%, 25.489807%)" d="M 663.515625 665.765625 C 663.515625 665.765625 666.40625 675.285156 641.375 676.398438 C 641.375 676.398438 640.816406 664.453125 663.515625 665.765625 " fill-opacity="1" fill-rule="nonzero"/><path fill="rgb(57.649231%, 81.17981%, 25.489807%)" d="M 639.535156 667.441406 C 639.535156 667.441406 629.613281 657.367188 610.066406 666.980469 C 610.066406 666.980469 627.3125 674.890625 639.535156 667.441406 " fill-opacity="1" fill-rule="nonzero"/><path fill="rgb(23.529053%, 38.42926%, 15.289307%)" d="M 607.011719 653.066406 C 607.011719 653.066406 607.175781 663.011719 631.355469 656.414062 C 631.355469 656.414062 628.199219 644.863281 607.011719 653.066406 " fill-opacity="1" fill-rule="nonzero"/><path fill="rgb(57.649231%, 81.17981%, 25.489807%)" d="M 629.023438 677.648438 C 629.023438 677.648438 629.316406 687.589844 604.878906 682.144531 C 604.878906 682.144531 607.472656 670.460938 629.023438 677.648438 " fill-opacity="1" fill-rule="nonzero"/><path fill="rgb(96.078491%, 52.549744%, 6.669617%)" d="M 522.09375 667.636719 C 522.09375 667.636719 512.175781 657.59375 492.59375 667.179688 C 492.59375 667.179688 509.875 675.121094 522.09375 667.636719 " fill-opacity="1" fill-rule="nonzero"/><path fill="rgb(96.078491%, 52.549744%, 6.669617%)" d="M 494.632812 654.082031 C 494.632812 654.082031 498.113281 663.402344 473.179688 666.03125 C 473.179688 666.03125 471.933594 654.148438 494.632812 654.082031 " fill-opacity="1" fill-rule="nonzero"/><path fill="rgb(97.24884%, 65.098572%, 16.859436%)" d="M 492.003906 665.078125 C 492.003906 665.078125 494.894531 674.59375 469.863281 675.710938 C 469.863281 675.710938 469.335938 663.765625 492.003906 665.078125 " fill-opacity="1" fill-rule="nonzero"/><path fill="rgb(96.078491%, 52.549744%, 6.669617%)" d="M 468.023438 666.75 C 468.023438 666.75 458.101562 656.675781 438.558594 666.292969 C 438.558594 666.292969 455.804688 674.203125 468.023438 666.75 " fill-opacity="1" fill-rule="nonzero"/><path fill="rgb(97.24884%, 65.098572%, 16.859436%)" d="M 435.503906 652.375 C 435.503906 652.375 435.667969 662.320312 459.84375 655.722656 C 459.84375 655.722656 456.722656 644.203125 435.503906 652.375 " fill-opacity="1" fill-rule="nonzero"/><path fill="rgb(97.24884%, 65.098572%, 16.859436%)" d="M 457.511719 676.957031 C 457.511719 676.957031 457.839844 686.902344 433.367188 681.453125 C 433.367188 681.453125 435.960938 669.769531 457.511719 676.957031 " fill-opacity="1" fill-rule="nonzero"/><path fill="rgb(67.83905%, 87.449646%, 53.329468%)" d="M 636.152344 624.480469 C 636.152344 624.480469 653.921875 595.335938 678.429688 594.515625 C 702.96875 593.730469 690.289062 606.429688 678.429688 609.515625 C 666.570312 612.601562 642.523438 618.671875 636.152344 624.480469 " fill-opacity="1" fill-rule="nonzero"/><path fill="rgb(67.83905%, 87.449646%, 53.329468%)" d="M 659.636719 614.898438 C 659.636719 614.898438 685.953125 612.042969 693.800781 599.636719 C 701.652344 587.199219 705.070312 572.265625 709.078125 569.707031 C 713.085938 567.113281 719.886719 570.984375 719.917969 584.574219 C 719.984375 599.636719 705.070312 620.410156 659.636719 614.898438 " fill-opacity="1" fill-rule="nonzero"/><path fill="rgb(45.098877%, 79.998779%, 49.01886%)" d="M 632.703125 626.710938 C 632.703125 626.710938 645.546875 614.40625 657.535156 621.066406 C 669.527344 627.695312 658.585938 638.59375 649.488281 633.40625 C 640.355469 628.253906 634.902344 626.875 632.703125 626.710938 " fill-opacity="1" fill-rule="nonzero"/><path fill="rgb(45.098877%, 79.998779%, 49.01886%)" d="M 653.890625 618.246094 C 653.890625 618.246094 673.171875 610.402344 689.070312 615.816406 C 704.9375 621.230469 695.90625 625.628906 681.417969 624.21875 C 666.964844 622.839844 655.925781 616.933594 653.890625 618.246094 " fill-opacity="1" fill-rule="nonzero"/><path fill="rgb(34.899902%, 18.818665%, 7.839966%)" d="M 403.636719 176.960938 C 404.394531 174.269531 405.050781 172.089844 405.050781 169.203125 C 405.050781 165.3125 404.851562 161.867188 404.195312 158.070312 C 403.539062 154.402344 403.113281 150.972656 401.601562 147.523438 C 399.300781 142.257812 395.195312 139.292969 390.699219 135.96875 C 381.824219 129.402344 370.414062 125.996094 359.695312 129.207031 C 352.195312 131.457031 344.433594 137.648438 341.636719 145.097656 C 338.539062 153.355469 341.296875 161.734375 343.316406 169.878906 C 345.027344 176.761719 343.972656 184.964844 339.855469 190.972656 C 337.5 194.40625 334.476562 197.820312 333.253906 201.894531 C 331.964844 206.164062 331.789062 210.394531 332.585938 214.71875 C 334.667969 226.011719 341.582031 235.707031 351.824219 240.960938 C 358.308594 244.285156 365.78125 244.847656 372.386719 241.515625 C 378.75 238.304688 384.421875 233.078125 383.019531 225.351562 C 382.582031 222.933594 381.40625 220.445312 380.113281 218.347656 C 376.6875 212.796875 374.5 206.671875 370.886719 201.253906 C 367.601562 196.320312 367.546875 188.023438 369.765625 182.675781 C 372.203125 176.808594 379.371094 172.273438 385.433594 171.257812 C 392.207031 170.121094 398.445312 173.34375 402.847656 178.371094 " fill-opacity="1" fill-rule="nonzero"/><path fill="rgb(98.429871%, 79.998779%, 90.979004%)" d="M 335.710938 224.320312 C 335.710938 224.320312 384.984375 208.5 402.519531 238.292969 C 402.519531 238.292969 364.128906 345.542969 369.195312 441.15625 C 369.195312 441.15625 359.496094 453.789062 324.539062 443.78125 C 299.40625 436.558594 275.214844 295.3125 335.710938 224.320312 " fill-opacity="1" fill-rule="nonzero"/><path fill="rgb(95.289612%, 39.99939%, 72.938538%)" d="M 391.582031 238.558594 C 381.691406 258.515625 362.613281 270.980469 341.570312 276.75 C 333.816406 278.875 325.839844 280.179688 317.816406 280.734375 C 315.246094 280.914062 312.683594 280.972656 310.105469 281.019531 C 303.035156 281.164062 301.9375 286.175781 299.574219 292.523438 C 298.628906 295.085938 297.8125 297.703125 296.789062 300.238281 C 294.09375 306.882812 290.375 314.34375 289.15625 321.429688 C 287.925781 328.585938 288.492188 337.085938 290.597656 343.933594 C 291.742188 347.675781 294.464844 351.855469 293.589844 355.722656 C 292.261719 361.632812 286.851562 367.195312 284.550781 372.925781 C 281.082031 381.578125 279.300781 390.253906 278.507812 399.507812 C 277.632812 409.910156 276.839844 421.628906 280.214844 431.667969 C 284.984375 445.878906 294.128906 455.136719 306.847656 462.78125 C 324.707031 473.515625 353.082031 476.960938 366.800781 457.792969 C 370.191406 453.066406 374.921875 444.796875 373.683594 438.660156 C 372.449219 432.523438 369.902344 426.453125 368.941406 420.28125 C 367.738281 412.570312 369.15625 403.675781 369.6875 395.929688 C 370.789062 379.589844 372.773438 363.335938 375.394531 347.179688 C 379.726562 320.535156 385.75 294.15625 393.160156 268.199219 C 395.886719 258.617188 398.777344 249.070312 402.0625 239.652344 L 391.582031 238.558594 " fill-opacity="1" fill-rule="nonzero"/><path fill="rgb(96.859741%, 59.999084%, 81.959534%)" d="M 304.789062 284.023438 C 304.789062 284.023438 368.664062 286.632812 394.375 239.699219 L 401.46875 241.34375 L 402.519531 238.289062 L 390.441406 233.402344 C 390.441406 233.402344 381.425781 274.058594 305.972656 279.144531 L 304.789062 284.023438 " fill-opacity="1" fill-rule="nonzero"/><path fill="rgb(68.238831%, 22.749329%, 49.798584%)" d="M 372.820312 617.820312 C 372.820312 617.820312 371.257812 615.292969 374.859375 625.53125 C 374.859375 625.53125 378.367188 633.046875 398.875 641.972656 C 402.980469 643.777344 409.484375 647.160156 407.875 657.957031 C 407.875 657.957031 408.828125 665.601562 367.007812 653.035156 C 367.007812 653.035156 341.875 643.515625 334.917969 640.070312 C 334.917969 640.070312 340.058594 617.882812 345.628906 610.304688 C 351.199219 602.6875 372.820312 617.820312 372.820312 617.820312 " fill-opacity="1" fill-rule="nonzero"/><path fill="rgb(77.648926%, 69.018555%, 55.288696%)" d="M 430.148438 312.96875 C 430.148438 312.96875 424.136719 332.464844 427.191406 337.183594 C 428.308594 338.882812 425.382812 349.785156 470.75 345.882812 C 478.011719 345.261719 508.066406 342.566406 509.941406 334.054688 L 510.300781 321.386719 C 510.300781 321.386719 491.085938 327.726562 476.628906 325.550781 C 454.488281 322.210938 437.734375 315.96875 430.148438 312.96875 " fill-opacity="1" fill-rule="nonzero"/><path fill="rgb(96.859741%, 58.039856%, 56.469727%)" d="M 498.476562 328.757812 C 498.476562 328.757812 498.378906 329.117188 498.410156 329.238281 C 500.941406 340.171875 507.773438 338.171875 507.773438 338.171875 C 507.773438 338.171875 514.277344 338.265625 517.890625 330.171875 C 519.367188 326.871094 520.714844 326.300781 519.5 323.476562 C 519.5 323.476562 522.09375 319.824219 519.695312 318.652344 C 519.695312 318.652344 521.929688 315.199219 520.089844 313.871094 C 520.089844 313.871094 522.851562 308.804688 516.707031 309.453125 C 513.292969 309.808594 506.949219 313.371094 498.476562 328.757812 " fill-opacity="1" fill-rule="nonzero"/><path fill="rgb(91.369629%, 45.878601%, 51.759338%)" d="M 502.945312 329.066406 C 502.945312 329.066406 501.628906 335.636719 508.921875 333.035156 C 516.542969 330.300781 517.167969 328.652344 517.167969 328.652344 L 512.535156 324.769531 L 509.90625 323.726562 L 502.945312 329.066406 " fill-opacity="1" fill-rule="nonzero"/><path fill="rgb(91.369629%, 45.878601%, 51.759338%)" d="M 498.410156 329.238281 C 498.410156 329.238281 499.527344 320.789062 503.601562 314.304688 C 503.601562 314.304688 511.417969 306.953125 512.632812 305.378906 C 513.851562 303.804688 518.121094 302.605469 515.855469 308.261719 C 515.558594 309.027344 512.535156 312.933594 512.535156 312.933594 C 512.535156 312.933594 512.175781 322.667969 509.183594 325.84375 C 504.226562 331.15625 498.410156 329.238281 498.410156 329.238281 " fill-opacity="1" fill-rule="nonzero"/><path fill="rgb(8.628845%, 10.5896%, 21.569824%)" d="M 494.796875 670.953125 C 494.765625 672.230469 495.75 673.28125 496.996094 673.316406 C 498.277344 673.347656 499.328125 672.363281 499.363281 671.082031 L 510.597656 292.417969 C 510.628906 291.152344 509.644531 290.101562 508.363281 290.0625 C 507.117188 290.03125 506.0625 291.015625 506.03125 292.277344 L 494.796875 670.941406 " fill-opacity="1" fill-rule="nonzero"/><path fill="rgb(96.859741%, 58.039856%, 56.469727%)" d="M 515.296875 324.894531 C 515.296875 324.894531 517.921875 325.582031 516.9375 328.554688 C 516.445312 330.042969 505.703125 332.453125 505.703125 332.453125 C 505.703125 332.453125 503.4375 332.644531 503.832031 330.074219 C 504.191406 327.84375 515.296875 324.894531 515.296875 324.894531 " fill-opacity="1" fill-rule="nonzero"/><path fill="rgb(96.859741%, 58.039856%, 56.469727%)" d="M 515.6875 319.257812 C 515.6875 319.257812 518.414062 319.261719 518.21875 322.386719 C 518.121094 323.953125 508.332031 329.003906 508.332031 329.003906 C 508.332031 329.003906 506.195312 329.765625 505.898438 327.175781 C 505.671875 324.929688 515.6875 319.257812 515.6875 319.257812 " fill-opacity="1" fill-rule="nonzero"/><path fill="rgb(96.859741%, 58.039856%, 56.469727%)" d="M 515.722656 314.675781 C 515.722656 314.675781 518.414062 314.683594 518.21875 317.808594 C 518.121094 319.371094 508.363281 324.421875 508.363281 324.421875 C 508.363281 324.421875 506.195312 325.179688 505.933594 322.59375 C 505.703125 320.347656 515.722656 314.675781 515.722656 314.675781 " fill-opacity="1" fill-rule="nonzero"/><path fill="rgb(96.859741%, 58.039856%, 56.469727%)" d="M 518.054688 309.703125 C 518.054688 309.703125 520.714844 310.097656 520.089844 313.167969 C 519.761719 314.695312 509.347656 318.273438 509.347656 318.273438 C 509.347656 318.273438 507.117188 318.710938 507.214844 316.113281 C 507.3125 313.859375 518.054688 309.703125 518.054688 309.703125 " fill-opacity="1" fill-rule="nonzero"/><path fill="rgb(93.728638%, 19.60907%, 63.529968%)" d="M 448.804688 638.132812 L 449.792969 644.433594 C 449.792969 644.433594 454.980469 652.210938 457.378906 653.65625 C 465.953125 658.742188 476.761719 659.070312 483.59375 662.910156 C 487.042969 664.847656 489.769531 666.359375 490.132812 675.382812 C 490.132812 675.382812 490.855469 679.027344 465.558594 680.4375 C 465.558594 680.4375 425.582031 677.285156 421.902344 670.789062 L 421.835938 651.097656 C 421.835938 651.097656 420.03125 645.714844 420.425781 643.941406 C 423.25 631.207031 448.804688 638.132812 448.804688 638.132812 " fill-opacity="1" fill-rule="nonzero"/><path fill="rgb(94.898987%, 35.688782%, 70.979309%)" d="M 484.644531 663.503906 C 484.285156 663.304688 483.957031 663.109375 483.59375 662.910156 C 476.761719 659.070312 465.953125 658.742188 457.378906 653.65625 C 454.980469 652.210938 449.792969 644.433594 449.792969 644.433594 L 449.726562 643.976562 C 445.585938 645.320312 438.097656 647.816406 438.097656 647.816406 C 438.097656 647.816406 443.058594 658.644531 451.992188 660.910156 C 460.597656 663.109375 481.886719 671.148438 484.644531 663.503906 " fill-opacity="1" fill-rule="nonzero"/><path fill="rgb(12.939453%, 7.839966%, 6.269836%)" d="M 388.796875 500.164062 C 374.15625 512.175781 370.410156 546.011719 365.089844 567.046875 C 360.53125 585.097656 349.753906 611.417969 349.753906 611.417969 C 367.699219 624.449219 370.476562 617.292969 370.476562 617.292969 C 370.476562 617.292969 382.917969 589.691406 385.308594 584.441406 C 388.511719 577.386719 416.941406 519.035156 422.886719 508.566406 C 412.015625 505.773438 408.136719 495.503906 388.796875 500.164062 " fill-opacity="1" fill-rule="nonzero"/><path fill="rgb(12.939453%, 7.839966%, 6.269836%)" d="M 437.570312 366.539062 L 433.167969 408.828125 C 433.167969 408.828125 432.710938 447.949219 429.851562 510.140625 C 429.851562 510.140625 423.378906 519.984375 388.796875 500.164062 C 388.796875 500.164062 376.464844 392.453125 375.703125 390.417969 C 374.929688 388.382812 437.570312 366.539062 437.570312 366.539062 " fill-opacity="1" fill-rule="nonzero"/><path fill="rgb(89.019775%, 80.778503%, 69.40918%)" d="M 379.242188 450.867188 L 383.65625 470.757812 C 383.65625 470.757812 382.988281 472.101562 383.65625 474.105469 C 384.324219 476.105469 419.042969 474.726562 419.042969 474.726562 L 407.875 458.351562 L 401.832031 447.128906 L 379.242188 450.867188 " fill-opacity="1" fill-rule="nonzero"/><path fill="rgb(20.779419%, 12.159729%, 8.628845%)" d="M 453.40625 512.175781 C 442.007812 514.242188 431.332031 518.707031 420.359375 514.800781 C 418.683594 519.394531 412.144531 538.003906 415.921875 561.894531 C 422.363281 602.523438 425.054688 642.664062 425.054688 642.664062 C 439.96875 650.636719 443.582031 640.070312 443.582031 640.070312 C 443.484375 634.128906 444.765625 593.269531 446.410156 574.203125 C 448.246094 552.3125 453.207031 522.839844 453.40625 512.175781 " fill-opacity="1" fill-rule="nonzero"/><path fill="rgb(20.779419%, 12.159729%, 8.628845%)" d="M 433.859375 357.558594 C 433.957031 358.292969 434.058594 359.035156 434.15625 359.769531 C 434.222656 360.386719 434.121094 361.28125 434.679688 361.613281 C 434.84375 361.707031 436.324219 361.804688 436.289062 361.585938 C 436.683594 363.066406 437.242188 364.109375 437.835938 365.722656 C 438.0625 366.253906 438.195312 366.300781 437.898438 366.714844 C 437.671875 366.992188 437.308594 367.25 437.046875 367.484375 C 436.554688 367.960938 436.125 367.972656 435.730469 368.535156 C 435.402344 369.035156 435.535156 370.117188 435.632812 370.707031 C 435.863281 372.332031 438.261719 366.785156 438.457031 368.40625 C 438.917969 371.726562 437.175781 382.214844 437.636719 385.535156 C 438.292969 390.480469 438.984375 395.40625 439.574219 400.359375 C 440.296875 406.398438 451.46875 472.859375 453.40625 512.175781 C 453.40625 512.175781 447.886719 524.21875 420.359375 514.800781 L 389.542969 426.945312 C 389.542969 426.945312 367.007812 392.515625 371.804688 368.796875 C 376.585938 345.0625 433.859375 357.558594 433.859375 357.558594 " fill-opacity="1" fill-rule="nonzero"/><path fill="rgb(100%, 100%, 100%)" d="M 394.503906 445.386719 L 401.535156 462.222656 C 401.535156 462.222656 402.160156 470.855469 403.898438 472.367188 C 413.066406 480.273438 439.902344 470.167969 450.746094 465.835938 C 453.042969 464.882812 449.660156 454.316406 449.660156 454.316406 L 447.722656 440.039062 L 394.503906 445.386719 " fill-opacity="1" fill-rule="nonzero"/><path fill="rgb(91.369629%, 45.878601%, 51.759338%)" d="M 410.796875 208.109375 C 410.796875 208.109375 412.96875 216.597656 401.074219 232.328125 C 401.074219 232.328125 413.523438 240.828125 430.246094 240.59375 C 430.246094 240.59375 423.875 227.9375 437.441406 214.324219 C 444.832031 206.898438 410.796875 208.109375 410.796875 208.109375 " fill-opacity="1" fill-rule="nonzero"/><path fill="rgb(96.859741%, 58.039856%, 56.469727%)" d="M 444.011719 163.871094 C 443.15625 163.617188 442.367188 163.886719 441.515625 163.625 C 441.152344 163.519531 439.640625 163.183594 439.839844 163.191406 C 439.410156 163.125 438.984375 163.082031 438.589844 163.050781 C 438.328125 163.089844 437.113281 163.175781 436.785156 163.222656 C 436.027344 163.355469 435.304688 163.492188 434.550781 163.691406 C 434.386719 163.738281 434.058594 163.835938 433.859375 163.910156 C 433.105469 164.21875 432.347656 164.558594 431.660156 164.96875 C 431.460938 165.097656 431.296875 165.222656 431.132812 165.359375 C 430.640625 165.765625 430.179688 166.179688 429.71875 166.632812 C 429.6875 166.664062 429.65625 166.695312 429.65625 166.734375 C 429.457031 166.96875 429.292969 167.207031 429.097656 167.453125 C 428.539062 168.214844 428.046875 169.003906 427.585938 169.835938 C 427.519531 169.957031 427.386719 170.179688 427.289062 170.371094 C 426.828125 171.417969 426.402344 172.492188 426.007812 173.585938 C 424.300781 178.726562 423.25 183.9375 420.71875 188.785156 C 419.371094 191.398438 417.46875 193.566406 415.199219 195.273438 C 416.808594 202.625 416.480469 204.96875 423.773438 210.3125 C 428.109375 213.492188 448.3125 223.078125 450.808594 219.667969 C 452.089844 217.898438 460.140625 191.585938 446.34375 164.175781 C 445.421875 163.984375 444.898438 164.128906 444.011719 163.871094 " fill-opacity="1" fill-rule="nonzero"/><path fill="rgb(34.899902%, 18.818665%, 7.839966%)" d="M 417.699219 201.140625 C 419.867188 200.921875 420.160156 196.257812 422.394531 195.898438 C 424.300781 195.601562 424.167969 199.839844 425.613281 200.296875 C 427.714844 200.960938 429.71875 197.0625 429.328125 195.359375 C 429.03125 194.207031 427.882812 193.113281 427.453125 191.714844 C 427.257812 190.9375 427.125 189.871094 426.863281 189.070312 C 425.320312 184.195312 424.792969 180.863281 428.667969 176.820312 C 431.789062 173.570312 434.945312 173.03125 439.445312 173.03125 C 444.40625 173.03125 452.648438 174.863281 451.304688 167.355469 C 450.808594 164.648438 449.101562 162.464844 447.03125 160.734375 C 443.351562 157.644531 438.589844 155.789062 433.957031 154.664062 C 430.082031 153.734375 426.140625 152.035156 422.035156 152.449219 C 418.15625 152.847656 413.691406 154.929688 410.042969 156.457031 C 403.046875 159.402344 396.835938 165.566406 396.378906 173.570312 C 396.082031 178.257812 395.851562 183.890625 396.707031 188.410156 C 398.183594 195.972656 404.066406 201.1875 406.199219 208.25 C 406.890625 210.515625 407.808594 212.191406 409.617188 213.847656 C 411.292969 215.429688 412.113281 215.316406 414.414062 215.058594 C 417.433594 214.722656 419.570312 212.0625 420.425781 209.324219 C 421.507812 205.886719 418.648438 204.105469 418.15625 200.90625 " fill-opacity="1" fill-rule="nonzero"/><path fill="rgb(96.859741%, 58.039856%, 56.469727%)" d="M 422.394531 195.898438 C 422.394531 195.898438 410.898438 189.316406 410.503906 197.285156 C 410.074219 205.25 420.652344 211.539062 423.050781 209.140625 L 422.394531 195.898438 " fill-opacity="1" fill-rule="nonzero"/><path fill="rgb(96.859741%, 58.039856%, 56.469727%)" d="M 452.75 205.871094 C 452.75 205.871094 458.761719 204.464844 458.039062 203.191406 C 454.128906 196.59375 452.253906 189.277344 452.253906 189.277344 L 452.75 205.871094 " fill-opacity="1" fill-rule="nonzero"/><path fill="rgb(98.81897%, 84.709167%, 62.348938%)" d="M 403.898438 225.964844 C 403.898438 225.964844 410.242188 232.644531 430.773438 239.160156 C 430.773438 239.160156 474.199219 282.804688 448.414062 318.300781 C 448.414062 318.300781 441.777344 340.773438 432.382812 363.316406 C 432.382812 363.316406 400.84375 366.976562 383.582031 356.171875 C 383.582031 356.171875 385.59375 323.996094 382.152344 302.414062 C 380.316406 290.835938 360.160156 234.378906 403.898438 225.964844 " fill-opacity="1" fill-rule="nonzero"/><path fill="rgb(98.429871%, 78.039551%, 45.878601%)" d="M 437.570312 252.566406 C 437.570312 252.566406 438.785156 254 440.398438 249.804688 C 442.007812 245.605469 440.132812 229.867188 427.519531 225.960938 C 414.90625 222.050781 395.523438 203.015625 379.367188 205.921875 C 363.21875 208.828125 317.601562 257.386719 352.222656 266.308594 C 386.847656 275.226562 367.621094 203.769531 437.570312 252.566406 " fill-opacity="1" fill-rule="nonzero"/><path fill="rgb(98.81897%, 84.709167%, 62.348938%)" d="M 437.570312 276.523438 C 437.570312 276.523438 439.050781 262.371094 445.914062 281.351562 C 448.773438 289.296875 447.753906 349.230469 453.40625 388.449219 C 459.054688 427.664062 463.917969 443.484375 461.355469 444.832031 C 441.710938 455.496094 353.933594 462.222656 350.175781 447.128906 C 342.949219 418.117188 369.28125 333.339844 368.949219 323.726562 C 368.617188 314.109375 368.75 271.738281 375.25 256.414062 C 381.757812 241.085938 437.570312 276.523438 437.570312 276.523438 " fill-opacity="1" fill-rule="nonzero"/><path fill="rgb(93.728638%, 19.60907%, 63.529968%)" d="M 359.703125 353.820312 C 359.703125 353.820312 450.417969 272.390625 399.761719 236.355469 C 395.917969 233.613281 391.195312 237.050781 381.324219 240.605469 L 385.578125 235.070312 C 385.578125 235.070312 394.933594 230.777344 403.898438 232.785156 C 419.503906 236.269531 451.695312 278.109375 365.195312 353.820312 L 359.703125 353.820312 " fill-opacity="1" fill-rule="nonzero"/><path fill="rgb(98.81897%, 87.838745%, 69.40918%)" d="M 375.582031 266.316406 C 375.582031 266.316406 371.101562 241.386719 390.035156 236.691406 C 408.960938 231.996094 409.550781 277.457031 394.339844 280.34375 C 379.113281 283.234375 375.582031 266.316406 375.582031 266.316406 " fill-opacity="1" fill-rule="nonzero"/><path fill="rgb(96.859741%, 58.039856%, 56.469727%)" d="M 416.515625 340.597656 L 418.617188 340.765625 L 428.109375 354.898438 L 429.0625 360.007812 C 429.0625 360.007812 422.789062 366.972656 412.472656 369.464844 C 412.472656 369.464844 409.453125 362.597656 408.007812 359.75 C 406.5625 356.90625 406.398438 347.179688 406.398438 347.179688 L 416.515625 340.597656 " fill-opacity="1" fill-rule="nonzero"/><path fill="rgb(98.81897%, 87.838745%, 69.40918%)" d="M 376.304688 307.34375 C 376.304688 307.34375 393.191406 330.4375 417.761719 340.617188 C 417.761719 340.617188 415.398438 349.734375 406.792969 353.820312 C 406.792969 353.820312 393.683594 348.386719 386.6875 345.097656 C 362.382812 333.644531 352.78125 321.226562 347.628906 315.039062 C 341.875 308.113281 366.222656 305.753906 376.304688 307.34375 " fill-opacity="1" fill-rule="nonzero"/><path fill="rgb(98.81897%, 87.838745%, 69.40918%)" d="M 399.003906 269.699219 L 396.871094 279.390625 C 396.871094 279.390625 378.710938 292.882812 377.039062 298.101562 C 375.371094 303.3125 377.316406 307.800781 375.382812 311.914062 C 373.453125 316.03125 372.820312 307.921875 347.628906 315.039062 C 347.628906 315.039062 345.046875 311.160156 344.804688 309.433594 C 343.058594 296.992188 355.035156 252.566406 384.460938 239.003906 C 384.460938 239.003906 406.234375 251.035156 399.003906 269.699219 " fill-opacity="1" fill-rule="nonzero"/><path fill="rgb(34.899902%, 18.818665%, 7.839966%)" d="M 427.914062 164.394531 C 430.015625 164.105469 431.988281 163.453125 434.121094 163.351562 C 436.390625 163.238281 438.6875 163.5 440.921875 163.675781 C 444.632812 163.96875 448.019531 165.023438 449.890625 168.4375 C 450.644531 169.753906 450.546875 171.121094 449.890625 172.40625 C 447.886719 176.371094 443.320312 178.222656 439.738281 180.453125 C 432.578125 184.90625 426.699219 196.414062 432.644531 204.0625 C 433.433594 205.066406 434.484375 205.96875 435.007812 207.101562 C 436.027344 209.210938 436.324219 211.699219 436.355469 214.054688 C 436.390625 216.792969 435.863281 219.429688 434.222656 221.675781 C 433.335938 222.878906 432.25 223.980469 430.96875 224.785156 C 430.050781 225.363281 427.058594 225.921875 426.828125 227 C 422.886719 227.773438 419.109375 227.640625 416.679688 223.921875 C 415.792969 222.585938 415.234375 220.105469 415.628906 218.464844 C 415.921875 217.164062 417.203125 216.15625 417.960938 215.144531 C 419.765625 212.765625 421.246094 210.304688 421.246094 207.238281 C 421.246094 204.214844 421.015625 201.265625 420.851562 198.320312 C 420.71875 196.035156 420.128906 193.761719 420.324219 191.46875 C 420.523438 189.042969 422.035156 187.074219 423.25 185.046875 C 424.101562 183.632812 424.957031 182.183594 425.253906 180.535156 C 425.878906 177.1875 425.21875 173.898438 424.398438 170.753906 C 424.101562 169.625 423.378906 168.140625 423.875 166.910156 C 424.429688 165.609375 426.664062 164.578125 427.914062 164.394531 " fill-opacity="1" fill-rule="nonzero"/><path fill="rgb(100%, 100%, 100%)" d="M 406.003906 160.472656 C 406.003906 160.472656 412.113281 157.800781 411.027344 155.058594 C 409.976562 152.320312 407.121094 154.324219 407.121094 154.324219 C 407.121094 154.324219 407.085938 149.855469 402.652344 150.519531 C 398.25 151.183594 386.199219 162.011719 388.386719 173.234375 C 388.386719 173.234375 389.8125 176.175781 391.941406 173.632812 C 391.941406 173.632812 392.5 179.484375 396.179688 176.835938 C 396.179688 176.835938 398.183594 166.773438 406.003906 160.472656 " fill-opacity="1" fill-rule="nonzero"/><path fill="rgb(98.429871%, 79.998779%, 90.979004%)" d="M 445.226562 623.792969 C 445.226562 623.792969 448.96875 624.613281 447.394531 626.546875 C 445.816406 628.484375 446.242188 633.015625 446.144531 633.472656 C 446.015625 633.933594 448.246094 643.484375 448.246094 643.484375 C 448.246094 643.484375 437.636719 650.179688 429.03125 646.894531 C 420.0625 643.484375 422.394531 640.890625 422.394531 634.359375 C 422.363281 627.859375 418.75 624.480469 421.246094 623.660156 C 423.742188 622.839844 432.480469 627.203125 445.226562 623.792969 " fill-opacity="1" fill-rule="nonzero"/><path fill="rgb(98.429871%, 79.998779%, 90.979004%)" d="M 378.203125 600.492188 C 378.203125 600.492188 381.535156 602.917969 379.144531 604.132812 C 376.75 605.347656 375.203125 610.039062 374.898438 610.433594 C 374.601562 610.828125 372.6875 621.199219 372.6875 621.199219 C 372.6875 621.199219 359.316406 623.199219 352.246094 616.277344 C 344.902344 609.054688 350.125 608.433594 352.921875 602 C 355.726562 595.566406 353.601562 590.644531 356.421875 590.941406 C 359.238281 591.203125 364.175781 598.355469 378.203125 600.492188 " fill-opacity="1" fill-rule="nonzero"/><path fill="rgb(93.728638%, 19.60907%, 63.529968%)" d="M 438.886719 649.6875 C 438.886719 649.6875 431.527344 644.632812 432.117188 633.734375 C 432.117188 633.734375 440.5625 627.597656 452.417969 630.847656 C 464.246094 634.097656 451.007812 644.46875 451.992188 647.324219 C 452.945312 650.210938 443.023438 650.539062 438.886719 649.6875 " fill-opacity="1" fill-rule="nonzero"/><path fill="rgb(68.238831%, 22.749329%, 49.798584%)" d="M 360.957031 621.199219 C 360.957031 621.199219 354.863281 614.667969 357.804688 604.199219 C 357.804688 604.199219 367.386719 599.996094 378.246094 605.742188 C 389.101562 611.453125 373.9375 618.738281 374.25 621.757812 C 374.558594 624.777344 364.820312 622.9375 360.957031 621.199219 " fill-opacity="1" fill-rule="nonzero"/><path fill="rgb(98.429871%, 79.998779%, 90.979004%)" d="M 421.902344 670.425781 C 421.902344 670.425781 421.507812 676.5625 421.902344 680.4375 C 422.296875 684.308594 486.683594 691.167969 490.132812 675.382812 C 490.132812 675.382812 482.117188 681.355469 458.300781 679.484375 C 447.359375 678.632812 430.050781 675.777344 421.902344 670.425781 " fill-opacity="1" fill-rule="nonzero"/><path fill="rgb(98.429871%, 79.998779%, 90.979004%)" d="M 335.617188 637.246094 C 335.617188 637.246094 375.078125 661.730469 407.84375 658.644531 C 407.84375 658.644531 401.273438 666.621094 370.351562 660.613281 C 340.785156 654.839844 332.828125 647.027344 332.828125 647.027344 L 335.617188 637.246094 " fill-opacity="1" fill-rule="nonzero"/><path fill="rgb(96.859741%, 59.999084%, 81.959534%)" d="M 278.507812 399.507812 C 278.507812 399.507812 294.441406 398.621094 310.757812 393.273438 C 310.757812 393.273438 309.421875 430.949219 323.597656 454.183594 C 323.597656 454.183594 305.238281 459.007812 297.832031 457.664062 C 290.425781 456.316406 283.472656 450.574219 281.597656 444.175781 C 279.726562 437.773438 270.871094 407.613281 278.507812 399.507812 " fill-opacity="1" fill-rule="nonzero"/><path fill="rgb(96.859741%, 59.999084%, 81.959534%)" d="M 290.394531 313.363281 C 290.394531 313.363281 306.261719 314.863281 322.890625 313.585938 C 322.890625 313.585938 318.402344 337.425781 330.511719 354.082031 C 330.511719 354.082031 311.898438 354.753906 304.671875 352.9375 C 297.441406 351.125 291.023438 346.558594 289.707031 342.226562 C 288.390625 337.894531 282.140625 317.539062 290.394531 313.363281 " fill-opacity="1" fill-rule="nonzero"/></svg>